<svg xmlns="http://www.w3.org/2000/svg" width="1024" height="1024" viewBox="0 0 1024 1024">
  <defs>
    <linearGradient id="sam-lab-gradient" x1="150" y1="92" x2="888" y2="930" gradientUnits="userSpaceOnUse">
      <stop offset="0" stop-color="#fbbf24"/>
      <stop offset=".5" stop-color="#f97316"/>
      <stop offset="1" stop-color="#c2410c"/>
    </linearGradient>
    <radialGradient id="sam-lab-highlight" cx="0" cy="0" r="1" gradientTransform="translate(286 196) rotate(50) scale(760)">
      <stop stop-color="#ffffff" stop-opacity=".34"/>
      <stop offset="1" stop-color="#ffffff" stop-opacity="0"/>
    </radialGradient>
    <linearGradient id="sam-lab-panel" x1="292" y1="270" x2="736" y2="694" gradientUnits="userSpaceOnUse">
      <stop stop-color="#ffffff" stop-opacity=".28"/>
      <stop offset="1" stop-color="#ffffff" stop-opacity=".12"/>
    </linearGradient>
    <filter id="sam-lab-shadow" x="-20%" y="-20%" width="140%" height="150%">
      <feDropShadow dx="0" dy="30" stdDeviation="34" flood-color="#7c2d12" flood-opacity=".32"/>
    </filter>
  </defs>

  <rect x="88" y="70" width="848" height="848" rx="206" fill="url(#sam-lab-gradient)" filter="url(#sam-lab-shadow)"/>
  <rect x="88" y="70" width="848" height="848" rx="206" fill="url(#sam-lab-highlight)"/>
  <rect x="105" y="87" width="814" height="814" rx="190" fill="none" stroke="#ffffff" stroke-opacity=".2" stroke-width="12"/>

  <g stroke="#ffffff" stroke-linecap="round" stroke-linejoin="round">
    <rect x="254" y="244" width="516" height="438" rx="76" fill="url(#sam-lab-panel)" stroke-opacity=".92" stroke-width="28"/>
    <path d="M268 352h488" fill="none" stroke-opacity=".72" stroke-width="24"/>
    <circle cx="324" cy="300" r="14" fill="#ffffff" stroke="none"/>
    <circle cx="374" cy="300" r="14" fill="#ffffff" fill-opacity=".72" stroke="none"/>
    <circle cx="424" cy="300" r="14" fill="#ffffff" fill-opacity=".48" stroke="none"/>

    <rect x="314" y="410" width="78" height="78" rx="22" fill="#ffffff" fill-opacity=".92" stroke="none"/>
    <path d="M434 438h218M434 474h152" fill="none" stroke-opacity=".88" stroke-width="25"/>
    <rect x="314" y="526" width="78" height="78" rx="22" fill="#ffffff" fill-opacity=".64" stroke="none"/>
    <path d="M434 554h170M434 590h106" fill="none" stroke-opacity=".72" stroke-width="25"/>

    <circle cx="724" cy="704" r="126" fill="#9a3412" fill-opacity=".9" stroke-opacity=".96" stroke-width="24"/>
    <path d="m662 704 40 42 82-90" fill="none" stroke-width="34"/>
  </g>
</svg>
